<svg width="387" height="387" viewBox="0 0 387 387" fill="none" xmlns="http://www.w3.org/2000/svg">
<path d="M59.5033 327.497C94.5592 362.553 141.936 382.455 191.455 382.989C194.81 383.025 197.5 380.306 197.5 377L197.5 306.8C197.5 303.466 194.808 300.841 191.571 300.783C163.812 300.284 137.295 289.04 117.627 269.373C97.9598 249.705 86.7158 223.188 86.2173 195.429C86.1592 192.192 83.5338 189.5 80.2 189.5L10 189.5C6.69389 189.5 3.97486 192.19 4.01102 195.545C4.54465 245.064 24.4473 292.441 59.5033 327.497Z" fill="black" stroke="white" stroke-width="8"/>
<mask id="path-2-inside-1_5_4" fill="white">
<path d="M193.5 8C169.14 8 145.018 12.7981 122.512 22.1204C100.006 31.4427 79.5568 45.1066 62.3315 62.3319C45.1062 79.5572 31.4424 100.007 22.1202 122.513C12.798 145.019 7.99993 169.14 8 193.501L82.2 193.5C82.2 178.884 85.0788 164.411 90.6721 150.908C96.2654 137.404 104.464 125.134 114.799 114.799C125.134 104.464 137.404 96.2656 150.907 90.6722C164.411 85.0789 178.884 82.2 193.5 82.2V8Z"/>
</mask>
<path d="M193.5 8C169.14 8 145.018 12.7981 122.512 22.1204C100.006 31.4427 79.5568 45.1066 62.3315 62.3319C45.1062 79.5572 31.4424 100.007 22.1202 122.513C12.798 145.019 7.99993 169.14 8 193.501L82.2 193.5C82.2 178.884 85.0788 164.411 90.6721 150.908C96.2654 137.404 104.464 125.134 114.799 114.799C125.134 104.464 137.404 96.2656 150.907 90.6722C164.411 85.0789 178.884 82.2 193.5 82.2V8Z" fill="white" stroke="white" stroke-width="20" mask="url(#path-2-inside-1_5_4)"/>
<mask id="path-3-inside-2_5_4" fill="white">
<path d="M379 193.5C379 217.86 374.202 241.982 364.88 264.488C355.557 286.994 341.894 307.443 324.668 324.668C307.443 341.894 286.994 355.557 264.488 364.88C241.982 374.202 217.86 379 193.5 379L193.5 304.8C208.116 304.8 222.589 301.921 236.093 296.328C249.596 290.734 261.866 282.536 272.201 272.201C282.536 261.866 290.734 249.596 296.328 236.093C301.921 222.589 304.8 208.116 304.8 193.5H379Z"/>
</mask>
<path d="M379 193.5C379 217.86 374.202 241.982 364.88 264.488C355.557 286.994 341.894 307.443 324.668 324.668C307.443 341.894 286.994 355.557 264.488 364.88C241.982 374.202 217.86 379 193.5 379L193.5 304.8C208.116 304.8 222.589 301.921 236.093 296.328C249.596 290.734 261.866 282.536 272.201 272.201C282.536 261.866 290.734 249.596 296.328 236.093C301.921 222.589 304.8 208.116 304.8 193.5H379Z" fill="white" stroke="white" stroke-width="20" mask="url(#path-3-inside-2_5_4)"/>
<mask id="path-4-outside-3_5_4" maskUnits="userSpaceOnUse" x="185" y="0" width="202" height="202" fill="black">
<rect fill="white" x="185" width="202" height="202"/>
<path d="M377 193.5C378.105 193.5 379.001 192.604 378.989 191.5C378.734 167.82 373.947 144.402 364.88 122.512C355.557 100.006 341.894 79.557 324.668 62.3317C307.443 45.1064 286.994 31.4426 264.488 22.1203C242.598 13.0533 219.18 8.26609 195.5 8.01078C194.396 7.99887 193.5 8.89543 193.5 10L193.5 80.2C193.5 81.3046 194.396 82.1981 195.5 82.218C209.435 82.4684 223.205 85.3341 236.093 90.6722C249.596 96.2656 261.866 104.464 272.201 114.799C282.536 125.134 290.734 137.404 296.328 150.907C301.666 163.795 304.532 177.565 304.782 191.5C304.802 192.604 305.695 193.5 306.8 193.5H377Z"/>
</mask>
<path d="M377 193.5C378.105 193.5 379.001 192.604 378.989 191.5C378.734 167.82 373.947 144.402 364.88 122.512C355.557 100.006 341.894 79.557 324.668 62.3317C307.443 45.1064 286.994 31.4426 264.488 22.1203C242.598 13.0533 219.18 8.26609 195.5 8.01078C194.396 7.99887 193.5 8.89543 193.5 10L193.5 80.2C193.5 81.3046 194.396 82.1981 195.5 82.218C209.435 82.4684 223.205 85.3341 236.093 90.6722C249.596 96.2656 261.866 104.464 272.201 114.799C282.536 125.134 290.734 137.404 296.328 150.907C301.666 163.795 304.532 177.565 304.782 191.5C304.802 192.604 305.695 193.5 306.8 193.5H377Z" fill="black"/>
<path d="M377 193.5C378.105 193.5 379.001 192.604 378.989 191.5C378.734 167.82 373.947 144.402 364.88 122.512C355.557 100.006 341.894 79.557 324.668 62.3317C307.443 45.1064 286.994 31.4426 264.488 22.1203C242.598 13.0533 219.18 8.26609 195.5 8.01078C194.396 7.99887 193.5 8.89543 193.5 10L193.5 80.2C193.5 81.3046 194.396 82.1981 195.5 82.218C209.435 82.4684 223.205 85.3341 236.093 90.6722C249.596 96.2656 261.866 104.464 272.201 114.799C282.536 125.134 290.734 137.404 296.328 150.907C301.666 163.795 304.532 177.565 304.782 191.5C304.802 192.604 305.695 193.5 306.8 193.5H377Z" stroke="white" stroke-width="16" mask="url(#path-4-outside-3_5_4)"/>
</svg>
